<svg xmlns="http://www.w3.org/2000/svg" xmlns:xlink="http://www.w3.org/1999/xlink" width="77" height="25" viewBox="0 0 77 25">
  <defs>
    <linearGradient id="linear-gradient" x1="0.193" y1="0.944" x2="1" y2="0.153" gradientUnits="objectBoundingBox">
      <stop offset="0" stop-color="#00ffcf"/>
      <stop offset="0.495" stop-color="#3d5dff"/>
      <stop offset="1" stop-color="#6950dd"/>
    </linearGradient>
    <clipPath id="clip-igloo-logo">
      <rect width="77" height="25"/>
    </clipPath>
  </defs>
  <g id="igloo-logo" clip-path="url(#clip-igloo-logo)">
    <g id="Group_2703" data-name="Group 2703" transform="translate(0 0)">
      <g id="Group_1934" data-name="Group 1934" transform="translate(27.046 0.871)">
        <path id="Path_1119" data-name="Path 1119" d="M197.117,35.461a5.951,5.951,0,1,0,5.951,5.951,5.951,5.951,0,0,0-5.951-5.951m0,9.522a3.571,3.571,0,1,1,3.571-3.571,3.571,3.571,0,0,1-3.571,3.571" transform="translate(-186.104 -30.376)" fill="#fff"/>
        <path id="Path_1120" data-name="Path 1120" d="M310.5,35.461a5.951,5.951,0,1,0,5.951,5.951,5.951,5.951,0,0,0-5.951-5.951m0,9.522a3.571,3.571,0,1,1,3.571-3.571,3.571,3.571,0,0,1-3.571,3.571" transform="translate(-280.445 -30.376)" fill="#fff"/>
        <path id="Path_1121" data-name="Path 1121" d="M392.542,35.461a5.951,5.951,0,1,0,5.951,5.951,5.951,5.951,0,0,0-5.951-5.951m0,9.522a3.571,3.571,0,1,1,3.571-3.571,3.571,3.571,0,0,1-3.571,3.571" transform="translate(-348.706 -30.376)" fill="#fff"/>
        <path id="Path_1122" data-name="Path 1122" d="M197.129,116.985a3.571,3.571,0,0,1-3.567-3.407.168.168,0,0,0-.167-.163h-2.046a.169.169,0,0,0-.169.172,5.951,5.951,0,0,0,11.9,0,.169.169,0,0,0-.169-.172h-2.046a.168.168,0,0,0-.167.163,3.571,3.571,0,0,1-3.567,3.407" transform="translate(-186.116 -95.236)" fill="#fff"/>
        <path id="Path_1123" data-name="Path 1123" d="M276.373,21.848h2.045a.168.168,0,0,0,.168-.168V5.352a.168.168,0,0,0-.168-.168h-2.045a.168.168,0,0,0-.168.168V21.68a.168.168,0,0,0,.168.168" transform="translate(-256.86 -5.184)" fill="#fff"/>
        <path id="Path_1124" data-name="Path 1124" d="M162.99,48.594h2.045a.168.168,0,0,0,.168-.168V37.5a.168.168,0,0,0-.168-.168H162.99a.168.168,0,0,0-.168.168V48.426a.168.168,0,0,0,.168.168" transform="translate(-162.521 -31.931)" fill="#fff"/>
        <path id="Path_1125" data-name="Path 1125" d="M162.52,10.723a1.491,1.491,0,1,0,1.491,1.491,1.491,1.491,0,0,0-1.491-1.491" transform="translate(-161.029 -9.793)" fill="#fff"/>
      </g>
      <path id="Path_1126" data-name="Path 1126" d="M9.946,0A10.2,10.2,0,0,0,0,10.256v2.269a7.39,7.39,0,0,0,7.39,7.39h5.425a7.39,7.39,0,0,0,7.39-7.39V10.1A10.114,10.114,0,0,0,9.946,0M4.761,12.017v4.326a.253.253,0,0,1-.406.2,5.033,5.033,0,0,1-2-4.019V10.246a7.844,7.844,0,0,1,7.771-7.895,7.71,7.71,0,0,1,4.829,1.71.252.252,0,0,1-.231.436,7.691,7.691,0,0,0-2.449-.328,7.9,7.9,0,0,0-7.51,7.848m8,5.54c-1,0-3.958,0-5.146,0a.5.5,0,0,1-.5-.5V13.629a2.99,2.99,0,0,1,5.98,0v3.592a.335.335,0,0,1-.334.336m5.095-5.033a5.034,5.034,0,0,1-2,4.019.253.253,0,0,1-.406-.2V13.629a5.345,5.345,0,0,0-6.457-5.18.252.252,0,0,1-.229-.426,5.352,5.352,0,0,1,3.668-1.505,5.439,5.439,0,0,1,5.427,5.476Z" transform="translate(0 0)" fill="url(#linear-gradient)"/>
    </g>
  </g>
</svg>
