<svg xmlns="http://www.w3.org/2000/svg" xmlns:xlink="http://www.w3.org/1999/xlink" width="16" height="16" viewBox="0 0 16 16">
  <defs>
    <linearGradient id="linear-gradient" x1="0.193" y1="0.944" x2="1" y2="0.153" gradientUnits="objectBoundingBox">
      <stop offset="0" stop-color="#00ffcf"/>
      <stop offset="0.495" stop-color="#3d5dff"/>
      <stop offset="1" stop-color="#6950dd"/>
    </linearGradient>
    <clipPath id="clip-igloo-icon16">
      <rect width="16" height="16"/>
    </clipPath>
  </defs>
  <g id="igloo-icon16" clip-path="url(#clip-igloo-icon16)">
    <path id="Path_1354" data-name="Path 1354" d="M7.876,0A8.079,8.079,0,0,0,0,8.121v1.8A5.852,5.852,0,0,0,5.852,15.77h4.3A5.852,5.852,0,0,0,16,9.918V8A8.009,8.009,0,0,0,7.876,0M3.77,9.516v3.426a.2.2,0,0,1-.322.159A3.986,3.986,0,0,1,1.862,9.918v-1.8A6.212,6.212,0,0,1,8.015,1.862a6.105,6.105,0,0,1,3.824,1.354.2.2,0,0,1-.183.345A6.09,6.09,0,0,0,9.717,3.3,6.257,6.257,0,0,0,3.77,9.516M10.1,13.9c-.79,0-3.134,0-4.075,0a.4.4,0,0,1-.4-.4V10.792a2.368,2.368,0,0,1,4.736,0v2.845a.265.265,0,0,1-.264.266m4.034-3.985A3.986,3.986,0,0,1,12.551,13.1a.2.2,0,0,1-.322-.159V10.792a4.233,4.233,0,0,0-5.113-4.1.2.2,0,0,1-.181-.337,4.238,4.238,0,0,1,2.9-1.192,4.307,4.307,0,0,1,4.3,4.336Z" transform="translate(0 0.115)" fill="url(#linear-gradient)"/>
  </g>
</svg>
