<svg id="e6T02roucn81" xmlns="http://www.w3.org/2000/svg" xmlns:xlink="http://www.w3.org/1999/xlink" viewBox="0 0 14 14" shape-rendering="geometricPrecision" text-rendering="geometricPrecision"><path d="M3.28348,10.8571v1.1429h-3.142855v-1.1429h3.142855ZM6.42634,9.71429c.15476,0,.28869.05654.40179.16964s.16964.24707.16964.40177v2.2857c0,.1548-.05655.2887-.16964.4018s-.24703.1697-.40179.1697h-2.28572c-.15476,0-.28869-.0566-.40178-.1697s-.16964-.247-.16964-.4018v-2.2857c0-.1547.05654-.28868.16964-.40177s.24702-.16964.40178-.16964h2.28572ZM7.85491,6.28571v1.14286h-7.714285v-1.14286h7.714285ZM2.14062,1.71428v1.14286h-1.999995v-1.14286h1.999995ZM13.8549,10.8571v1.1429h-6.57142v-1.1429h6.57142ZM5.28348,0.571428c.15476,0,.28869.056548.40179.169643s.16964.247024.16964.401789v2.28571c0,.15476-.05655.28869-.16964.40179s-.24703.16964-.40179.16964h-2.28571c-.15476,0-.28869-.05655-.40179-.16964s-.16964-.24703-.16964-.40179v-2.28571c0-.154765.05655-.288694.16964-.401789s.24703-.169643.40179-.169643h2.28571ZM10.9978,5.14286c.1547,0,.2887.05654.4018.16964s.1696.24702.1696.40179v2.28571c0,.15476-.0566.28869-.1696.40179s-.2471.16964-.4018.16964h-2.28575c-.15476,0-.28869-.05655-.40178-.16964s-.16965-.24703-.16965-.40179v-2.28571c0-.15477.05655-.2887.16965-.40179s.24702-.16964.40178-.16964h2.28575Zm2.8571,1.14285v1.14286h-2v-1.14286h2Zm0-4.57143v1.14286h-7.71427v-1.14286h7.71427Z" fill="#fff" stroke="#fff"/></svg>