<svg id="e0TSq9l1Pcj1" xmlns="http://www.w3.org/2000/svg" xmlns:xlink="http://www.w3.org/1999/xlink" viewBox="0 0 16 16" shape-rendering="geometricPrecision" text-rendering="geometricPrecision"><path d="M8,15.5714c.09524,0,.14286-.0476.14286-.1428s-.04762-.1429-.14286-.1429c-.35119,0-.65476-.128-.91071-.3839-.25-.25-.375-.5506-.375-.9018c0-.0952-.04762-.1429-.14286-.1429s-.14286.0477-.14286.1429c0,.4345.15179.8036.45536,1.1071.30952.3096.68155.4643,1.11607.4643Zm7.4286-2.7143c0,.3096-.1131.5774-.3393.8036s-.4941.3393-.8036.3393h-4c0,.631-.2232,1.1696-.66963,1.6161s-.98512.6696-1.61607.6696-1.16964-.2232-1.61607-.6696-.66964-.9851-.66964-1.6161h-4c-.30953,0-.57739-.1131-.803576-.3393s-.339285-.494-.339285-.8036c.297619-.25.568451-.5119.812501-.7857s.49702-.6279.75893-1.0625c.2619-.4404.48214-.9137.66071-1.41961C2.9881,9.08333,3.1369,8.47024,3.25,7.75c.11905-.72024.17857-1.49405.17857-2.32143c0-.90476.34822-1.74405,1.04464-2.51786.69643-.77976,1.61012-1.25297,2.74108-1.41964-.04762-.11309-.07143-.22917-.07143-.34821c0-.238098.08333-.440479.25-.607146s.36905-.250001.60714-.250001.44048.083334.60714.250001.25.369048.25.607146c0,.11904-.02381.23512-.07142.34821c1.13095.16667,2.04468.63988,2.74108,1.41964.6964.77381,1.0446,1.6131,1.0446,2.51786c0,.82738.0566,1.60119.1697,2.32143.119.72024.2678,1.33333.4464,1.83929.1845.50591.4077.97921.6696,1.41961.2619.4346.5149.7887.759,1.0625s.5149.5357.8125.7857Z" fill="#fff"/></svg>