<svg id="e2gTSUZul3z1" xmlns="http://www.w3.org/2000/svg" xmlns:xlink="http://www.w3.org/1999/xlink" viewBox="0 0 16 16" shape-rendering="geometricPrecision" text-rendering="geometricPrecision"><path d="M11.2935,11.3393c0-.3393-.0178-.6578-.0535-.9554-.0298-.2976-.0923-.59521-.1875-.89283-.0893-.30357-.2054-.55952-.3483-.76786-.1428-.21428-.3333-.3869-.5714-.51785C9.89472,8.06845,9.62388,8,9.32031,8c-.03571.02381-.1369.08631-.30357.1875-.16071.09524-.28571.16667-.375.21429s-.21131.10714-.36607.17857c-.14881.07143-.29464.12202-.4375.15178-.1369.02976-.27381.04465-.41071.04465s-.27679-.01489-.41965-.04465c-.1369-.02976-.28274-.08035-.4375-.15178-.14881-.07143-.26785-.13096-.35714-.17857s-.21726-.11905-.38393-.21429C5.66853,8.08631,5.57031,8.02381,5.5346,8c-.30357,0-.57441.06845-.8125.20536-.2381.13095-.42857.30357-.57143.51785-.14286.20834-.26191.46429-.35714.76786-.08929.29762-.15179.59523-.1875.89283-.02977.2976-.04465.6161-.04465.9554c0,.4345.125.7976.375,1.0893.25.2857.55655.4285.91965.4285h5.14285c.36312,0,.66962-.1428.91962-.4285.25-.2917.375-.6548.375-1.0893ZM9.74888,6.03571c0-.64285-.22916-1.19047-.6875-1.64285-.45238-.45238-.99702-.67858-1.63392-.67858s-1.18453.2262-1.64286.67858c-.45238.45238-.67857,1-.67857,1.64285c0,.63691.22619,1.18155.67857,1.63393.45833.45238,1.00595.67857,1.64286.67857s1.18154-.22619,1.63392-.67857c.45834-.45238.6875-.99702.6875-1.63393ZM15.4275,10.8571v1.7143c0,.0834-.0268.1518-.0804.2054s-.122.0803-.2054.0803h-.8571v2c0,.3929-.1399.7292-.4196,1.009s-.6161.4196-1.009.4196h-10.85712c-.39285,0-.72916-.1399-1.008925-.4196s-.419643-.6161-.419643-1.009v-13.14282c0-.39285.139881-.729162.419643-1.008923s.616075-.419644,1.008925-.419644h10.85712c.3929,0,.7292.139881,1.009.419644s.4196.616073.4196,1.008923v2h.8571c.0834,0,.1518.02679.2054.08036s.0804.12203.0804.20536v1.71428c0,.08334-.0268.15179-.0804.20536s-.122.08036-.2054.08036h-.8571v1.14286h.8571c.0834,0,.1518.02678.2054.08035s.0804.12203.0804.20536v1.71429c0,.08333-.0268.15178-.0804.20535s-.122.08036-.2054.08036h-.8571v1.14283h.8571c.0834,0,.1518.0268.2054.0804s.0804.122.0804.2053Z" fill="#fff"/></svg>