<svg id="ezgGiDIuJB01" xmlns="http://www.w3.org/2000/svg" xmlns:xlink="http://www.w3.org/1999/xlink" viewBox="0 0 16 16" shape-rendering="geometricPrecision" text-rendering="geometricPrecision"><path d="M14.2042,13.2143c.3334.5297.3959.9821.1875,1.3571-.2023.381-.619.5715-1.25.5715h-10.28567c-.63096,0-1.0506-.1905-1.25893-.5715-.20238-.375-.13691-.8274.19643-1.3571L6.2846,6.13393v-3.5625h-.57143c-.15476,0-.28869-.05655-.40179-.16965s-.16964-.24702-.16964-.40178.05655-.28869.16964-.40179.24703-.16964.40179-.16964h4.57143c.1548,0,.2887.05655.4018.16964s.1696.24703.1696.40179-.0565.28869-.1696.40178-.247.16965-.4018.16965h-.57143v3.5625L14.2042,13.2143ZM7.24888,6.74107L4.82031,10.5714h6.35719L8.74888,6.74107l-.17857-.27678v-.33036-3.5625h-1.14285v3.5625.33036l-.17858.27678Z" fill="#fff"/></svg>