<svg id="eJWsp012tmK1" xmlns="http://www.w3.org/2000/svg" xmlns:xlink="http://www.w3.org/1999/xlink" viewBox="0 0 14 15" shape-rendering="geometricPrecision" text-rendering="geometricPrecision"><path d="M8.61384,8.90179c.44643-.44643.66964-.98512.66964-1.61608s-.22321-1.16964-.66964-1.61607-.98512-.66964-1.61607-.66964-1.16964.22321-1.61607.66964-.66965.98512-.66965,1.61607.22322,1.16965.66965,1.61608.98512.66964,1.61607.66964s1.16964-.22322,1.61607-.66964ZM13.8549,6.3125v1.98214c0,.07143-.0238.13988-.0714.20536s-.1072.10417-.1786.11607l-1.6518.25c-.1131.32143-.2291.59226-.3482.8125.2083.29762.5268.70833.9554,1.23213.0595.0714.0893.1458.0893.2232s-.0268.1459-.0804.2054c-.1607.2202-.4554.5417-.8839.9643s-.7084.6339-.8393.6339c-.0714,0-.1488-.0268-.2322-.0804l-1.2321-.9642c-.26191.1369-.53274.25-.8125.3392-.09524.8096-.18155,1.3631-.25893,1.6608-.04167.1666-.14881.25-.32143.25h-1.98214c-.08334,0-.15774-.0268-.22322-.0804-.05952-.0476-.09226-.1101-.09821-.1875l-.25-1.6429c-.29167-.0952-.55953-.2053-.80357-.3303l-1.25893.9553c-.05953.0536-.13393.0804-.22322.0804-.08333,0-.15773-.0327-.22321-.0982-.75-.6786-1.24107-1.1786-1.47322-1.5-.04166-.0595-.0625-.128-.0625-.2054c0-.0714.02381-.1399.07143-.2053.08929-.125.24108-.3215.45536-.5893.21429-.2738.375-.48513.48214-.63394-.16071-.29762-.28273-.59227-.36607-.88393L0.399554,8.58036c-.077381-.01191-.139881-.04762-.1875-.10715-.047619-.06547-.071429-.1369-.071429-.21428v-1.98214c0-.07143.02381-.13989.071429-.20536s.104166-.10417.169642-.11607l1.660714-.25c.08333-.27381.19941-.54762.34821-.82143-.23809-.33929-.55654-.75-.95535-1.23215-.05953-.07142-.08929-.14285-.08929-.21428c0-.05952.02679-.12798.08036-.20536.15476-.21428.44643-.53274.875-.95536.43452-.42857.71726-.64285.84821-.64285.07738,0,.15477.02976.23215.08928l1.23214.95536c.2619-.1369.53274-.25.8125-.33929.09524-.80952.18155-1.36309.25893-1.660709.04166-.166667.14881-.25.32143-.25h1.98214c.08333,0,.15476.026786.21428.080357.06548.047619.1012.110119.10715.1875l.25,1.642852c.29167.09524.55952.20536.80357.33036l1.26786-.95536c.0536-.05357.125-.08035.2143-.08035.0774,0,.1518.02976.2232.08928.7679.70834,1.2589,1.21429,1.4732,1.51786.0417.04762.0625.1131.0625.19643c0,.07143-.0238.13988-.0714.20536-.0893.125-.2411.3244-.4554.59821-.2143.26786-.375.47619-.4821.625.1547.29762.2768.58929.3661.875l1.6339.25c.0774.01191.1399.0506.1875.11607.0476.05953.0714.12798.0714.20536Z" fill="#fafafa"/></svg>