<svg id="erWCmv17bsK1" xmlns="http://www.w3.org/2000/svg" xmlns:xlink="http://www.w3.org/1999/xlink" viewBox="0 0 16 17" shape-rendering="geometricPrecision" text-rendering="geometricPrecision"><path d="M9.28348,11.5714v-1.4285c0-.0834-.02678-.15183-.08036-.2054s-.12202-.08036-.20535-.08036h-.85715v-4.57143c0-.08333-.02678-.15178-.08035-.20535s-.12203-.08036-.20536-.08036h-2.85714c-.08334,0-.15179.02679-.20536.08036s-.08036.12202-.08036.20535v1.42858c0,.08333.02679.15178.08036.20535s.12202.08036.20536.08036h.85714v2.85714h-.85714c-.08334,0-.15179.02679-.20536.08036s-.08036.122-.08036.2054v1.4285c0,.0834.02679.1518.08036.2054s.12202.0803.20536.0803h4c.08333,0,.15178-.0267.20535-.0803s.08036-.122.08036-.2054ZM8.14062,3.57143v-1.42857c0-.08334-.02678-.15179-.08035-.20536s-.12203-.08036-.20536-.08036h-1.71428c-.08334,0-.15179.02679-.20536.08036s-.08036.12202-.08036.20536v1.42857c0,.08333.02679.15178.08036.20535s.12202.08036.20536.08036h1.71428c.08333,0,.15179-.02678.20536-.08036s.08035-.12202.08035-.20535Zm4.79468.27678c.6131,1.04762.9196,2.19346.9196,3.4375s-.3065,2.39286-.9196,3.44639c-.6131,1.0477-1.4465,1.878-2.5,2.4911-1.04765.6131-2.19348.9197-3.43753.9197s-2.39286-.3066-3.44643-.9197c-1.04762-.6131-1.87798-1.4434-2.49107-2.4911-.613097-1.05353-.919645-2.20234-.919645-3.44639s.306548-2.38988.919645-3.4375c.61309-1.05357,1.44345-1.8869,2.49107-2.5c1.05357-.613091,2.20238-.919639,3.44643-.919639s2.38988.306548,3.43753.919639c1.0535.6131,1.8869,1.44643,2.5,2.5Z" fill="#fbfdff"/></svg>