<svg id="e4Na1shME7K1" xmlns="http://www.w3.org/2000/svg" xmlns:xlink="http://www.w3.org/1999/xlink" viewBox="0 0 16 16" shape-rendering="geometricPrecision" text-rendering="geometricPrecision"><path d="M15.6696,4.33036c.2203.22619.3304.49702.3304.8125c0,.30952-.1101.57738-.3304.80357L12.0893,9.51786l1.3393,1.33924L12,12.2857c-.9702.9703-2.13095,1.5268-3.48214,1.6697-1.34524.1369-2.56845-.1637-3.66965-.9018L1.61607,16.2857h-1.61607v-1.6161l3.23214-3.2321c-.73809-1.1012-1.03869-2.3244-.90178-3.66964C2.47321,6.41667,3.02976,5.25595,4,4.28571L5.42857,2.85714L6.76786,4.19643L10.3393,0.616071c.2262-.220239.497-.330358.8125-.330358s.5833.110119.8036.330358.3303.491069.3303.812499c0,.31548-.1101.58333-.3303.80357L8.38393,5.8125L10.4732,7.90179l3.5804-3.57143C14.2798,4.11012,14.5506,4,14.8661,4s.5833.11012.8035.33036Z" fill="#fdfdfd"/></svg>