<svg id="esO9UEcMfjK1" xmlns="http://www.w3.org/2000/svg" xmlns:xlink="http://www.w3.org/1999/xlink" viewBox="0 0 12 15" shape-rendering="geometricPrecision" text-rendering="geometricPrecision"><path d="M3.43108,7.28571h5.14286v-1.92857c0-.70982-.25112-1.31585-.75335-1.81808s-1.10826-.75335-1.81808-.75335-1.31585.25112-1.81808.75335-.75335,1.10826-.75335,1.81808v1.92857ZM11.7882,8.25v5.7857c0,.2679-.0937.4955-.2812.6831-.1875.1874-.4152.2812-.6831.2812h-9.64282c-.267855,0-.495533-.0938-.683033-.2812-.1875-.1876-.28125-.4152-.28125-.6831v-5.7857c0-.26786.09375-.49554.28125-.68304s.415178-.28125.683033-.28125h.32143v-1.92857c0-1.23214.44197-2.29018,1.32589-3.1741s1.94197-1.325898,3.17411-1.325898s2.29018.441968,3.17411,1.325898s1.32588,1.94196,1.32588,3.1741v1.92857h.3214c.2679,0,.4956.09375.6831.28125s.2812.41518.2812.68304Z" fill="#fff"/></svg>