<svg xmlns="http://www.w3.org/2000/svg" xmlns:xlink="http://www.w3.org/1999/xlink" width="20" height="20" viewBox="0 0 24 24">
  <defs>
    <clipPath id="clip-settings">
      <rect width="24" height="24"/>
    </clipPath>
  </defs>
  <g id="settings" clip-path="url(#clip-settings)">
    <g id="Group_2668" data-name="Group 2668" transform="translate(2 2)">
      <path id="Ellipse_243" data-name="Ellipse 243" d="M3-.75A3.75,3.75,0,1,1-.75,3,3.754,3.754,0,0,1,3-.75Zm0,6A2.25,2.25,0,1,0,.75,3,2.253,2.253,0,0,0,3,5.25Z" transform="translate(7 7.438)" fill="#fff"/>
      <g id="Group_1849" data-name="Group 1849" transform="translate(0 1)">
        <path id="Path_1101" data-name="Path 1101" d="M523.959,20.377a2.442,2.442,0,0,1-2.093-1.2l-.115-.2c-.294-.511-.656-.8-.995-.8s-.7.291-.993.8l-.115.2a2.443,2.443,0,0,1-2.1,1.2,2.382,2.382,0,0,1-1.207-.328l-1.724-.991a2.651,2.651,0,0,1-.972-3.62,1.327,1.327,0,0,0,.2-1.261,1.326,1.326,0,0,0-1.189-.461,2.651,2.651,0,0,1-2.651-2.647V9.308a2.65,2.65,0,0,1,2.647-2.647,1.329,1.329,0,0,0,1.193-.461,1.327,1.327,0,0,0-.2-1.261,2.652,2.652,0,0,1,.973-3.62l1.723-.991A2.384,2.384,0,0,1,517.553,0a2.441,2.441,0,0,1,2.092,1.2l0,.005.113.195c.294.51.656.8.994.8s.7-.291.993-.8l.114-.2,0-.006A2.441,2.441,0,0,1,523.959,0a2.385,2.385,0,0,1,1.208.329l1.723.991a2.652,2.652,0,0,1,.973,3.619,1.328,1.328,0,0,0-.2,1.261,1.326,1.326,0,0,0,1.189.461,2.651,2.651,0,0,1,2.651,2.647v1.761a2.65,2.65,0,0,1-2.647,2.647,1.33,1.33,0,0,0-1.193.461,1.327,1.327,0,0,0,.2,1.261,2.651,2.651,0,0,1-.973,3.62l-1.723.991A2.384,2.384,0,0,1,523.959,20.377Zm-3.2-3.7a2.737,2.737,0,0,1,2.293,1.551l.111.191a.934.934,0,0,0,.8.455.87.87,0,0,0,.448-.122l.008,0,1.727-.993a1.151,1.151,0,0,0,.422-1.568,2.739,2.739,0,0,1-.2-2.761,2.738,2.738,0,0,1,2.488-1.211,1.149,1.149,0,0,0,1.151-1.147V9.308a1.148,1.148,0,0,0-1.147-1.147,2.74,2.74,0,0,1-2.492-1.211,2.739,2.739,0,0,1,.2-2.761,1.151,1.151,0,0,0-.421-1.568l-1.727-.993-.008,0a.872.872,0,0,0-.449-.123.935.935,0,0,0-.8.456l-.111.192a2.47,2.47,0,0,1-4.585,0l-.11-.19a.934.934,0,0,0-.8-.456.871.871,0,0,0-.449.123l-.008,0-1.727.993a1.152,1.152,0,0,0-.421,1.569,2.738,2.738,0,0,1,.2,2.761,2.737,2.737,0,0,1-2.488,1.211,1.149,1.149,0,0,0-1.151,1.147v1.761a1.148,1.148,0,0,0,1.147,1.147,2.74,2.74,0,0,1,2.492,1.211,2.739,2.739,0,0,1-.2,2.761,1.151,1.151,0,0,0,.421,1.568l1.727.993.008,0a.869.869,0,0,0,.448.122.935.935,0,0,0,.8-.459l.111-.19A2.735,2.735,0,0,1,520.756,16.68Z" transform="translate(-510.756 -0.75)" fill="#fff"/>
      </g>
    </g>
  </g>
</svg>
